<?xml version="1.0" encoding="iso-8859-1"?>
<!-- Generator: Adobe Illustrator 19.0.0, SVG Export Plug-In . SVG Version: 6.00 Build 0)  -->
<svg version="1.1" id="Capa_1" xmlns="http://www.w3.org/2000/svg" xmlns:xlink="http://www.w3.org/1999/xlink" x="0px" y="0px"
	 viewBox="0 0 512 512" style="enable-background:new 0 0 512 512;" xml:space="preserve">
<g>
	
		<linearGradient id="SVGID_1_" gradientUnits="userSpaceOnUse" x1="0" y1="258" x2="512" y2="258" gradientTransform="matrix(1 0 0 -1 0 514)">
		<stop  offset="0" style="stop-color:#80D8FF"/>
		<stop  offset="0.16" style="stop-color:#88D1FF"/>
		<stop  offset="0.413" style="stop-color:#9FBEFE"/>
		<stop  offset="0.725" style="stop-color:#C4A0FD"/>
		<stop  offset="1" style="stop-color:#EA80FC"/>
	</linearGradient>
	<path style="fill:url(#SVGID_1_);" d="M492,276H20c-11.046,0-20-8.954-20-20s8.954-20,20-20h472c11.046,0,20,8.954,20,20
		C512,267.046,503.046,276,492,276z"/>
	
		<linearGradient id="SVGID_2_" gradientUnits="userSpaceOnUse" x1="0" y1="418" x2="512" y2="418" gradientTransform="matrix(1 0 0 -1 0 514)">
		<stop  offset="0" style="stop-color:#80D8FF"/>
		<stop  offset="0.16" style="stop-color:#88D1FF"/>
		<stop  offset="0.413" style="stop-color:#9FBEFE"/>
		<stop  offset="0.725" style="stop-color:#C4A0FD"/>
		<stop  offset="1" style="stop-color:#EA80FC"/>
	</linearGradient>
	<path style="fill:url(#SVGID_2_);" d="M492,116H20c-11.046,0-20-8.954-20-20s8.954-20,20-20h472c11.046,0,20,8.954,20,20
		S503.046,116,492,116z"/>
	
		<linearGradient id="SVGID_3_" gradientUnits="userSpaceOnUse" x1="0" y1="98" x2="512" y2="98" gradientTransform="matrix(1 0 0 -1 0 514)">
		<stop  offset="0" style="stop-color:#80D8FF"/>
		<stop  offset="0.16" style="stop-color:#88D1FF"/>
		<stop  offset="0.413" style="stop-color:#9FBEFE"/>
		<stop  offset="0.725" style="stop-color:#C4A0FD"/>
		<stop  offset="1" style="stop-color:#EA80FC"/>
	</linearGradient>
	<path style="fill:url(#SVGID_3_);" d="M492,436H20c-11.046,0-20-8.954-20-20s8.954-20,20-20h472c11.046,0,20,8.954,20,20
		S503.046,436,492,436z"/>
</g>
<g>
</g>
<g>
</g>
<g>
</g>
<g>
</g>
<g>
</g>
<g>
</g>
<g>
</g>
<g>
</g>
<g>
</g>
<g>
</g>
<g>
</g>
<g>
</g>
<g>
</g>
<g>
</g>
<g>
</g>
</svg>
